<svg width="225" height="218" viewBox="0 0 225 218" fill="none" xmlns="http://www.w3.org/2000/svg">
<rect width="225" height="218" fill="#F5F5F5"/>
<rect width="225" height="218" rx="12" fill="url(#paint0_linear_0_1)"/>
<g filter="url(#filter0_d_0_1)">
<path d="M40.08 44.59C40.08 39.27 41.83 34.79 45.33 31.15C48.97 27.51 53.73 25.69 59.61 25.69C65.49 25.69 70.18 27.51 73.68 31.15C77.32 34.79 79.14 39.27 79.14 44.59C79.14 49.91 77.32 54.39 73.68 58.03C70.18 61.67 65.49 63.49 59.61 63.49C53.73 63.49 48.97 61.67 45.33 58.03C41.83 54.39 40.08 49.91 40.08 44.59ZM77.46 174.79C75.92 175.07 73.61 175.42 70.53 175.84C67.59 176.4 64.58 176.68 61.5 176.68C58.42 176.68 55.62 176.47 53.1 176.05C50.72 175.63 48.69 174.79 47.01 173.53C45.33 172.27 44 170.59 43.02 168.49C42.18 166.25 41.76 163.38 41.76 159.88V74.41C43.3 74.13 45.54 73.78 48.48 73.36C51.56 72.8 54.64 72.52 57.72 72.52C60.8 72.52 63.53 72.73 65.91 73.15C68.43 73.57 70.53 74.41 72.21 75.67C73.89 76.93 75.15 78.68 75.99 80.92C76.97 83.02 77.46 85.82 77.46 89.32V174.79ZM164.868 110.32C164.868 105.98 163.608 102.83 161.088 100.87C158.708 98.77 155.418 97.72 151.218 97.72C148.418 97.72 145.618 98.07 142.818 98.77C140.158 99.47 137.848 100.52 135.888 101.92V174.79C134.488 175.21 132.248 175.63 129.168 176.05C126.228 176.47 123.148 176.68 119.928 176.68C116.848 176.68 114.048 176.47 111.528 176.05C109.148 175.63 107.118 174.79 105.438 173.53C103.758 172.27 102.428 170.59 101.448 168.49C100.608 166.25 100.188 163.38 100.188 159.88V96.88C100.188 93.1 100.958 90.02 102.498 87.64C104.178 85.26 106.418 83.09 109.218 81.13C113.978 77.77 119.928 75.04 127.068 72.94C134.348 70.84 142.398 69.79 151.218 69.79C167.038 69.79 179.218 73.29 187.758 80.29C196.298 87.15 200.568 96.74 200.568 109.06V174.79C199.168 175.21 196.928 175.63 193.848 176.05C190.908 176.47 187.828 176.68 184.608 176.68C181.528 176.68 178.728 176.47 176.208 176.05C173.828 175.63 171.798 174.79 170.118 173.53C168.438 172.27 167.108 170.59 166.128 168.49C165.288 166.25 164.868 163.38 164.868 159.88V110.32Z" fill="#F5F5F5"/>
</g>
<defs>
<filter id="filter0_d_0_1" x="37.08" y="24.69" width="174.488" height="164.99" filterUnits="userSpaceOnUse" color-interpolation-filters="sRGB">
<feFlood flood-opacity="0" result="BackgroundImageFix"/>
<feColorMatrix in="SourceAlpha" type="matrix" values="0 0 0 0 0 0 0 0 0 0 0 0 0 0 0 0 0 0 127 0" result="hardAlpha"/>
<feOffset dx="4" dy="6"/>
<feGaussianBlur stdDeviation="3.5"/>
<feComposite in2="hardAlpha" operator="out"/>
<feColorMatrix type="matrix" values="0 0 0 0 0 0 0 0 0 0 0 0 0 0 0 0 0 0 0.25 0"/>
<feBlend mode="normal" in2="BackgroundImageFix" result="effect1_dropShadow_0_1"/>
<feBlend mode="normal" in="SourceGraphic" in2="effect1_dropShadow_0_1" result="shape"/>
</filter>
<linearGradient id="paint0_linear_0_1" x1="0" y1="0" x2="319.5" y2="0" gradientUnits="userSpaceOnUse">
<stop offset="0.520906" stop-color="#58C8AD"/>
<stop offset="1" stop-color="#00FF0A" stop-opacity="0.24"/>
</linearGradient>
</defs>
</svg>
